<?xml version="1.0" standalone="no"?>
<!DOCTYPE svg PUBLIC "-//W3C//DTD SVG 20010904//EN"
 "http://www.w3.org/TR/2001/REC-SVG-20010904/DTD/svg10.dtd">
<svg version="1.0" xmlns="http://www.w3.org/2000/svg"
 width="300.000000pt" height="150.000000pt" viewBox="0 0 730.000000 462.000000"
 preserveAspectRatio="xMidYMid meet">

<g transform="translate(0.000000,462.000000) scale(0.100000,-0.100000)"
fill="#000000" stroke="none">
<path fill="#115293" d="M1689 3594 c-84 -25 -159 -128 -159 -216 0 -80 58 -171 134 -210 56
-29 146 -29 201 -1 83 43 128 117 129 208 1 100 -66 193 -158 220 -60 18 -87
18 -147 -1z"/>
<path fill="#115293" d="M2618 3598 c-49 -13 -112 -69 -138 -123 -32 -66 -26 -165 13 -224
123 -186 404 -114 424 108 15 163 -135 283 -299 239z"/>
<path fill="#115293" d="M1597 3106 c-81 -29 -100 -63 -132 -239 -58 -315 -91 -716 -66 -788
8 -24 12 -145 11 -416 0 -411 2 -432 51 -467 31 -21 117 -21 148 0 48 34 51
58 51 428 l0 345 43 23 c69 38 92 96 101 254 7 130 23 295 32 326 4 13 43 -21
155 -134 82 -83 149 -154 149 -158 0 -14 52 -30 96 -30 34 0 50 6 67 24 82 87
310 317 312 314 6 -7 35 -302 35 -360 1 -126 33 -196 110 -240 l40 -23 0 -363
0 -364 31 -29 c26 -25 39 -29 85 -29 45 0 59 5 86 29 l33 29 6 409 c3 266 9
422 17 448 20 70 -10 426 -64 735 -13 80 -29 159 -35 177 -22 69 -119 121
-197 107 -87 -16 -137 -54 -187 -141 -66 -113 -156 -234 -244 -325 -51 -54
-99 -98 -106 -98 -16 0 -157 148 -219 231 -27 35 -71 102 -100 149 -68 112
-112 155 -177 174 -63 19 -82 19 -132 2z"/>
<path d="M3300 1530 l0 -300 180 0 180 0 0 30 0 30 -150 0 -150 0 0 105 0 105
145 0 145 0 0 30 0 30 -145 0 -145 0 0 105 0 105 150 0 150 0 0 30 0 30 -180
0 -180 0 0 -300z"/>
<path d="M3970 1530 l0 -300 175 0 175 0 0 30 0 30 -145 0 -145 0 0 105 0 105
140 0 140 0 0 30 0 30 -140 0 -140 0 0 105 0 105 145 0 145 0 0 30 0 30 -175
0 -175 0 0 -300z"/>
<path d="M4582 1803 c3 -27 5 -28 76 -31 l72 -3 0 -269 0 -270 30 0 30 0 0
270 0 269 73 3 c70 3 72 4 75 31 l3 27 -181 0 -181 0 3 -27z"/>
<path d="M5190 1530 l0 -300 180 0 180 0 0 30 0 30 -145 0 -145 0 0 105 0 105
140 0 140 0 0 30 0 30 -140 0 -140 0 0 105 0 105 145 0 145 0 0 30 0 30 -180
0 -180 0 0 -300z"/>
<path d="M5860 1530 l0 -300 30 0 29 0 3 138 3 137 98 -137 99 -138 40 0 c31
0 38 3 31 13 -6 6 -56 74 -111 149 l-101 137 101 138 c55 76 105 144 111 151
7 9 0 12 -31 12 l-40 0 -101 -142 -101 -141 0 141 0 142 -30 0 -30 0 0 -300z"/>
</g>
</svg>
